<mxfile host="app.diagrams.net" modified="2024-06-13T00:53:26.148Z" agent="Mozilla/5.0 (X11; Linux x86_64; rv:127.0) Gecko/20100101 Firefox/127.0" etag="G_FJe7VNR7PCJ-F02yCa" version="24.5.4" type="github">
  <diagram name="Page-1" id="9Q-HjwNarTddlngFZKPI">
    <mxGraphModel dx="1434" dy="762" grid="1" gridSize="10" guides="1" tooltips="1" connect="1" arrows="1" fold="1" page="1" pageScale="1" pageWidth="850" pageHeight="1100" math="0" shadow="0">
      <root>
        <mxCell id="0" />
        <mxCell id="1" parent="0" />
        <mxCell id="kbZxGA6K30BJfTQQSOc3-2" value="&lt;div&gt;Cliente&lt;/div&gt;" style="swimlane;whiteSpace=wrap;html=1;startSize=40;" vertex="1" parent="1">
          <mxGeometry x="570" y="85" width="150" height="120" as="geometry" />
        </mxCell>
        <mxCell id="kbZxGA6K30BJfTQQSOc3-3" value="- nome: String" style="text;html=1;align=left;verticalAlign=middle;resizable=0;points=[];autosize=1;strokeColor=none;fillColor=none;" vertex="1" parent="kbZxGA6K30BJfTQQSOc3-2">
          <mxGeometry y="40" width="100" height="30" as="geometry" />
        </mxCell>
        <mxCell id="kbZxGA6K30BJfTQQSOc3-4" value="- email: String" style="text;html=1;align=left;verticalAlign=middle;resizable=0;points=[];autosize=1;strokeColor=none;fillColor=none;" vertex="1" parent="kbZxGA6K30BJfTQQSOc3-2">
          <mxGeometry y="60" width="100" height="30" as="geometry" />
        </mxCell>
        <mxCell id="kbZxGA6K30BJfTQQSOc3-5" value="+ notificar(): void" style="text;html=1;align=left;verticalAlign=middle;resizable=0;points=[];autosize=1;strokeColor=none;fillColor=none;" vertex="1" parent="kbZxGA6K30BJfTQQSOc3-2">
          <mxGeometry y="90" width="110" height="30" as="geometry" />
        </mxCell>
        <mxCell id="kbZxGA6K30BJfTQQSOc3-6" value="&lt;div&gt;Loja&lt;/div&gt;" style="swimlane;whiteSpace=wrap;html=1;startSize=40;align=center;" vertex="1" parent="1">
          <mxGeometry x="170" y="80" width="200" height="170" as="geometry" />
        </mxCell>
        <mxCell id="kbZxGA6K30BJfTQQSOc3-7" value="- parts: List&amp;lt;Part&amp;gt;" style="text;html=1;align=left;verticalAlign=middle;resizable=0;points=[];autosize=1;strokeColor=none;fillColor=none;" vertex="1" parent="kbZxGA6K30BJfTQQSOc3-6">
          <mxGeometry y="40" width="120" height="30" as="geometry" />
        </mxCell>
        <mxCell id="kbZxGA6K30BJfTQQSOc3-8" value="&lt;div&gt;+ adicionarCliente(): void&lt;/div&gt;" style="text;html=1;align=left;verticalAlign=middle;resizable=0;points=[];autosize=1;strokeColor=none;fillColor=none;" vertex="1" parent="kbZxGA6K30BJfTQQSOc3-6">
          <mxGeometry y="70" width="160" height="30" as="geometry" />
        </mxCell>
        <mxCell id="kbZxGA6K30BJfTQQSOc3-9" value="&lt;div&gt;+ removerCliente(): void&lt;/div&gt;" style="text;html=1;align=left;verticalAlign=middle;resizable=0;points=[];autosize=1;strokeColor=none;fillColor=none;" vertex="1" parent="kbZxGA6K30BJfTQQSOc3-6">
          <mxGeometry y="100" width="150" height="30" as="geometry" />
        </mxCell>
        <mxCell id="kbZxGA6K30BJfTQQSOc3-10" value="&lt;div&gt;+ notificar(): void&lt;/div&gt;" style="text;html=1;align=left;verticalAlign=middle;resizable=0;points=[];autosize=1;strokeColor=none;fillColor=none;" vertex="1" parent="kbZxGA6K30BJfTQQSOc3-6">
          <mxGeometry y="130" width="110" height="30" as="geometry" />
        </mxCell>
        <mxCell id="kbZxGA6K30BJfTQQSOc3-11" style="edgeStyle=orthogonalEdgeStyle;rounded=0;orthogonalLoop=1;jettySize=auto;html=1;entryX=0.5;entryY=1;entryDx=0;entryDy=0;endArrow=open;endFill=0;" edge="1" parent="1" source="kbZxGA6K30BJfTQQSOc3-12" target="kbZxGA6K30BJfTQQSOc3-6">
          <mxGeometry relative="1" as="geometry" />
        </mxCell>
        <mxCell id="kbZxGA6K30BJfTQQSOc3-12" value="Produto" style="swimlane;whiteSpace=wrap;html=1;startSize=40;" vertex="1" parent="1">
          <mxGeometry x="170" y="310" width="200" height="170" as="geometry" />
        </mxCell>
        <mxCell id="kbZxGA6K30BJfTQQSOc3-13" value="- nome: String" style="text;html=1;align=left;verticalAlign=middle;resizable=0;points=[];autosize=1;strokeColor=none;fillColor=none;" vertex="1" parent="kbZxGA6K30BJfTQQSOc3-12">
          <mxGeometry y="40" width="100" height="30" as="geometry" />
        </mxCell>
        <mxCell id="kbZxGA6K30BJfTQQSOc3-14" value="- preco: Double" style="text;html=1;align=left;verticalAlign=middle;resizable=0;points=[];autosize=1;strokeColor=none;fillColor=none;" vertex="1" parent="kbZxGA6K30BJfTQQSOc3-12">
          <mxGeometry y="60" width="110" height="30" as="geometry" />
        </mxCell>
        <mxCell id="kbZxGA6K30BJfTQQSOc3-15" value="- quantidade: int" style="text;html=1;align=left;verticalAlign=middle;resizable=0;points=[];autosize=1;strokeColor=none;fillColor=none;" vertex="1" parent="kbZxGA6K30BJfTQQSOc3-12">
          <mxGeometry y="80" width="110" height="30" as="geometry" />
        </mxCell>
        <mxCell id="kbZxGA6K30BJfTQQSOc3-16" value="- loja: Loja" style="text;html=1;align=left;verticalAlign=middle;resizable=0;points=[];autosize=1;strokeColor=none;fillColor=none;" vertex="1" parent="kbZxGA6K30BJfTQQSOc3-12">
          <mxGeometry y="100" width="80" height="30" as="geometry" />
        </mxCell>
        <mxCell id="kbZxGA6K30BJfTQQSOc3-17" value="+ setPreco(preco Double): void" style="text;html=1;align=left;verticalAlign=middle;resizable=0;points=[];autosize=1;strokeColor=none;fillColor=none;" vertex="1" parent="kbZxGA6K30BJfTQQSOc3-12">
          <mxGeometry y="130" width="190" height="30" as="geometry" />
        </mxCell>
        <mxCell id="kbZxGA6K30BJfTQQSOc3-20" value="" style="rhombus;whiteSpace=wrap;html=1;" vertex="1" parent="1">
          <mxGeometry x="370" y="130" width="30" height="30" as="geometry" />
        </mxCell>
        <mxCell id="kbZxGA6K30BJfTQQSOc3-21" style="edgeStyle=orthogonalEdgeStyle;rounded=0;orthogonalLoop=1;jettySize=auto;html=1;exitX=1;exitY=0.5;exitDx=0;exitDy=0;entryX=0;entryY=0.25;entryDx=0;entryDy=0;endArrow=open;endFill=0;" edge="1" parent="1" source="kbZxGA6K30BJfTQQSOc3-20" target="kbZxGA6K30BJfTQQSOc3-2">
          <mxGeometry relative="1" as="geometry">
            <mxPoint x="538.8" y="95.73000000000002" as="targetPoint" />
          </mxGeometry>
        </mxCell>
      </root>
    </mxGraphModel>
  </diagram>
</mxfile>
